<?xml version="1.0" encoding="UTF-8"?>
<!-- Created with Inkscape (http://www.inkscape.org/) -->
<svg width="100" height="100" version="1.1" viewBox="0 0 26.458 26.458" xmlns="http://www.w3.org/2000/svg">
 <g stroke-linecap="round">
  <g>
   <path transform="matrix(.33369 .028847 -.028847 .33369 13.187 6.0341)" d="m24.669 21.351c-1.2167 2.3843-7.8075-1.9283-9.5594 0.09556-1.7519 2.0238 3.4606 7.9286 1.2753 9.4744-2.1853 1.5458-6.0171-5.3357-8.5088-4.3578-2.4917 0.97786-0.62041 8.6287-3.2738 8.9818-2.6534 0.35314-2.8482-7.5208-5.509-7.8129-2.6608-0.29212-4.5593 7.352-7.0728 6.4316-2.5135-0.92039 0.97313-7.983-1.2471-9.4782-2.2202-1.4952-7.4537 4.3911-9.2516 2.408-1.7979-1.9831 4.5715-6.6163 3.3005-8.972-1.2711-2.3557-8.6406 0.42419-9.3109-2.1673-0.67039-2.5914 7.1227-3.734 7.0919-6.4106-0.03073-2.6766-7.848-3.6399-7.2373-6.246 0.61071-2.6062 8.0421 0.00379 9.2587-2.3805 1.2167-2.3843-5.2575-6.8701-3.5056-8.8939 1.7519-2.0238 7.1191 3.7407 9.3045 2.1949 2.1853-1.5458-1.4626-8.5264 1.0291-9.5043 2.4917-0.97786 4.5653 6.6206 7.2187 6.2675 2.6534-0.35314 2.6674-8.2295 5.3281-7.9374s0.9656 7.9839 3.4791 8.9043 6.1863-6.0473 8.4065-4.5521c2.2202 1.4952-2.8553 7.5181-1.0574 9.5012s8.288-2.4797 9.559-0.12397c1.2711 2.3557-6.0221 5.33-5.3517 7.9215 0.67039 2.5914 8.491 1.656 8.5217 4.3325 0.03073 2.6766-7.8093 1.9209-8.42 4.5271-0.61071 2.6062 6.7488 5.4122 5.5322 7.7965z" fill="#1c1007" stroke-width=".302"/>
   <path d="m11.969 17.217c-3.6496 0-6.5876 1.9776-6.5876 7.5055v1.7358h15.696v-1.7358c0-5.7115-2.938-7.5055-6.5876-7.5055z" fill="#001c86" stroke-width="1.3805" style="mix-blend-mode:normal"/>
   <path d="m11.969 17.217c-0.6515 0-1.2803 0.06345-1.8738 0.19844v9.0429h6.35v-9.0398c-0.6172-0.13884-1.2736-0.20154-1.9549-0.20154z" fill="#a04" stroke-width=".29153"/>
  </g>
  <g fill="#784421">
   <path d="m12.965 14.569h0.60858c0.88093 0 1.5901 0.68485 1.5901 1.5355v1.1715c0 0.85069-0.7092 1.5355-1.5901 1.5355h-0.60858c-0.88093 0-1.5901-0.68485-1.5901-1.5355v-1.1715c0-0.85069 0.7092-1.5355 1.5901-1.5355z" stroke-width=".30677"/>
   <rect x="7.7486" y="8.0964" width="3.175" height="2.8575" ry="1.1269" stroke-width=".69263"/>
   <rect x="15.616" y="8.0964" width="3.175" height="2.8575" ry="1.1269" stroke-width=".69263"/>
  </g>
  <g>
   <rect x="8.1786" y="8.4668" width="2.1167" height="2.1167" ry=".83472" fill="#3b2210" stroke-width=".48673"/>
   <rect x="16.245" y="8.4668" width="2.1167" height="2.1167" ry=".83472" fill="#3b2210" stroke-width=".48673"/>
   <path d="m11.923 12.931h2.693c0.30356 0 0.54794 0.23546 0.54794 0.52793v3.0318s-0.34868 0.37168-0.54794 0.52793c-0.85584 0.67108-1.8007 0.66808-2.693 0-0.30189-0.22604-0.54794-0.52793-0.54794-0.52793v-3.0318c0-0.29247 0.24438-0.52793 0.54794-0.52793z" fill="#412512" stroke-width=".29302"/>
  </g>
  <path d="m12.557 3.7252h1.4403c2.0849 0 3.8983 2.0537 3.7634 4.5966l-0.18874 3.558c-0.1349 2.543-2.418 4.0286-3.5747 4.5454-0.4096 0.18301-1.0386 0.19114-1.4403 0-1.1621-0.55292-3.4438-2.0892-3.5789-4.6321l-0.18449-3.4713c-0.13515-2.5429 1.6785-4.5966 3.7634-4.5966z" fill="#784421" stroke-width=".81653"/>
  <g transform="translate(-.51505 -1.0582)">
   <path d="m13.229 10.618a0.60854 1.1377 0 0 1-0.60854 1.1377 0.60854 1.1377 0 0 1-0.60854-1.1377 0.60854 1.1377 0 0 1 0.60854-1.1377 0.60854 1.1377 0 0 1 0.60854 1.1377z" fill="#fff" stroke-width=".78061"/>
   <path d="m12.991 10.769a0.37042 0.44979 0 0 1-0.37042 0.44979 0.37042 0.44979 0 0 1-0.37042-0.44979 0.37042 0.44979 0 0 1 0.37042-0.44979 0.37042 0.44979 0 0 1 0.37042 0.44979z" stroke-width=".76266"/>
  </g>
  <path d="m13.27 10.591c0.1759 0 0.3175 0.09462 0.3175 0.21215v1.0574c0 0.11753-0.1416 0.21215-0.3175 0.21215s-0.3175-0.09462-0.3175-0.21215v-1.0574c0-0.11753 0.1416-0.21215 0.3175-0.21215z" fill="#3b2210" stroke-width=".4363"/>
  <g transform="translate(1.8133 -1.0582)">
   <path d="m13.229 10.618a0.60854 1.1377 0 0 1-0.60854 1.1377 0.60854 1.1377 0 0 1-0.60854-1.1377 0.60854 1.1377 0 0 1 0.60854-1.1377 0.60854 1.1377 0 0 1 0.60854 1.1377z" fill="#fff" stroke-width=".78061"/>
   <path d="m12.991 10.769a0.37042 0.44979 0 0 1-0.37042 0.44979 0.37042 0.44979 0 0 1-0.37042-0.44979 0.37042 0.44979 0 0 1 0.37042-0.44979 0.37042 0.44979 0 0 1 0.37042 0.44979z" stroke-width=".76266"/>
  </g>
  <ellipse cx="9.9729" cy="11.23" rx=".53831" ry=".53023" fill="#3b2210" stroke-width=".79375"/>
  <ellipse cx="16.318" cy="11.324" rx=".53831" ry=".53023" fill="#3b2210" stroke-width=".79375"/>
  <path d="m11.319 8.4541c0.14014-0.29569 0.5787-0.63766 1.0432-0.40858" fill="none" stroke="#1c1007" stroke-width=".22679"/>
  <path d="m15.22 8.4541c-0.14014-0.29569-0.5787-0.63766-1.0432-0.40858" fill="none" stroke="#1c1007" stroke-width=".22679"/>
  <path d="m11.021 12.841a2.249 1.911 0 0 0 2.249 1.911 2.249 1.911 0 0 0 2.249-1.911z" fill="#333" stroke-width=".43325"/>
  <path d="m13.27 13.796a2.249 1.911 0 0 0-1.4871 0.47774 2.249 1.911 0 0 0 1.4871 0.47774 2.249 1.911 0 0 0 1.4876-0.47774 2.249 1.911 0 0 0-1.4876-0.47774z" fill="#f55" stroke-width=".43325"/>
  <path d="m11.271 12.841h3.9981v0.11944a0.37483 0.35831 0 0 1-0.37483 0.35831h-3.2485a0.37483 0.35831 0 0 1-0.37483-0.35831z" fill="#fff" stroke-width=".56789"/>
  <path d="m12.534 3.6881c-1.9629 0-3.6908 1.7771-3.8437 4.0845h0.83819c0.052856-0.46724 0.22885-0.82123 0.44493-1.0692-0.16649 0.28243-0.19019 0.56125-0.18293 1.0692h0.56896c0.05795-0.76996 0.2572-1.3175 0.51211-1.5782-0.11538 0.42196-0.23442 0.72864-0.19844 1.5782h0.58084c0.0042-1.0039 0.22778-1.7128 0.52917-2.0211-0.13349 0.48822-0.27208 0.82196-0.1695 2.0211h0.93844c-0.01645-1.0763 0.21324-1.8354 0.52813-2.1575-0.13841 0.50621-0.28224 0.84659-0.1571 2.1575h0.94775c0.12004-1.2858-0.02286-1.6242-0.1602-2.1265 0.31183 0.31896 0.54072 1.0668 0.52917 2.1265h0.79943c0.04938-0.92318-0.07468-1.2363-0.1943-1.6738 0.26534 0.2714 0.47069 0.8535 0.51883 1.6738h0.78186c0.03161-0.82497-0.08609-1.1291-0.19999-1.5456 0.25134 0.25709 0.4485 0.79264 0.50953 1.5456h0.61702c0.11877-0.75231-0.023648-0.95119-0.16071-1.2459 0.31105 0.18706 0.53949 0.62537 0.52917 1.2459h0.40876c-0.1531-2.3074-1.8803-4.0845-3.8432-4.0845z" fill="#1c1007" stroke-width=".83388"/>
  <path d="m12.55 3.7326c-2.0849 0-3.8987 1.4852-3.7636 3.3242v0.00224c0.12038-1.6591 1.8246-2.9438 3.7636-2.9438h1.4402c1.9396 0 3.6434 1.2855 3.7631 2.9453l5.17e-4 -0.00374c0.1349-1.839-1.6787-3.3242-3.7636-3.3242z" fill="#a04" stroke-width=".69438"/>
 </g>
</svg>
