<?xml version="1.0" encoding="UTF-8"?>
<!-- Created with Inkscape (http://www.inkscape.org/) -->
<svg width="100" height="100" version="1.1" viewBox="0 0 26.458 26.458" xmlns="http://www.w3.org/2000/svg">
 <g stroke-linecap="round">
  <path d="m12.519 3.6454c-1.6685 0.20309-4.1581 1.6583-4.1581 4.4234v1.3762h9.737v-1.3762c0-2.5481-2.5329-4.1972-4.0652-4.3852-0.21571-0.026478-1.0746-0.091627-1.5136-0.038185z" fill="#d5772a" stroke-width=".88661"/>
  <path d="m11.928 17.217c-3.6496 0-6.5876 1.9776-6.5876 7.5055v1.7358h15.696v-1.7358c0-5.7115-2.938-7.5055-6.5876-7.5055z" fill="#073aff" stroke-width="1.3805" style="mix-blend-mode:normal"/>
  <path d="m11.928 17.217c-0.6515 0-1.2803 0.06345-1.8738 0.19844v9.0429h6.35v-9.0398c-0.6172-0.13885-1.2736-0.20154-1.9549-0.20154z" fill="#0ff" stroke-width=".29153"/>
 </g>
 <g fill="#fca" stroke-linecap="round">
  <path d="m12.925 14.569h0.60858c0.88093 0 1.5901 0.68485 1.5901 1.5355v1.1715c0 0.85069-0.7092 1.5355-1.5901 1.5355h-0.60858c-0.88093 0-1.5901-0.68485-1.5901-1.5355v-1.1715c0-0.85069 0.7092-1.5355 1.5901-1.5355z" stroke-width=".30677"/>
  <rect x="7.708" y="8.0963" width="3.175" height="2.8575" ry="1.1269" stroke-width=".69263"/>
  <rect x="15.575" y="8.0963" width="3.175" height="2.8575" ry="1.1269" stroke-width=".69263"/>
 </g>
 <g stroke-linecap="round">
  <rect x="8.138" y="8.4667" width="2.1167" height="2.1167" ry=".83472" fill="#ffb07b" stroke-width=".48673"/>
  <rect x="16.204" y="8.4667" width="2.1167" height="2.1167" ry=".83472" fill="#ffb07b" stroke-width=".48673"/>
  <path d="m11.883 12.931h2.693c0.30356 0 0.54794 0.23546 0.54794 0.52793v3.0318s-0.34868 0.37168-0.54794 0.52793c-0.85584 0.67108-1.8007 0.66808-2.693 0-0.30189-0.22604-0.54794-0.52793-0.54794-0.52793v-3.0318c0-0.29247 0.24438-0.52793 0.54794-0.52793z" fill="#d38d5f" stroke-width=".29302"/>
 </g>
 <ellipse cx="13.252" cy="3.4709" rx="3.0377" ry="2.2669" fill="#d5772a"/>
 <rect x="11.067" y="3.2687" width="4.2643" height=".84967" ry=".31934" fill="#073aff"/>
 <g stroke-linecap="round">
  <path d="m12.509 3.7326h1.4403c2.0849 0 3.8983 2.0537 3.7634 4.5966l-0.18874 3.558c-0.1349 2.543-2.418 4.0286-3.5747 4.5454-0.4096 0.18301-1.0386 0.19114-1.4403 0-1.1621-0.55292-3.4438-2.0892-3.5789-4.6321l-0.18449-3.4713c-0.13515-2.5429 1.6785-4.5966 3.7634-4.5966z" fill="#fca" stroke-width=".81653"/>
  <g transform="translate(-.55562 -1.0583)">
   <path d="m13.229 10.618a0.60854 1.1377 0 0 1-0.60854 1.1377 0.60854 1.1377 0 0 1-0.60854-1.1377 0.60854 1.1377 0 0 1 0.60854-1.1377 0.60854 1.1377 0 0 1 0.60854 1.1377z" fill="#fff" stroke-width=".78061"/>
   <path d="m12.991 10.769a0.37042 0.44979 0 0 1-0.37042 0.44979 0.37042 0.44979 0 0 1-0.37042-0.44979 0.37042 0.44979 0 0 1 0.37042-0.44979 0.37042 0.44979 0 0 1 0.37042 0.44979z" stroke-width=".76266"/>
  </g>
  <path d="m13.229 10.591c0.1759 0 0.3175 0.09462 0.3175 0.21215v1.0574c0 0.11753-0.1416 0.21215-0.3175 0.21215s-0.3175-0.09462-0.3175-0.21215v-1.0574c0-0.11753 0.1416-0.21215 0.3175-0.21215z" fill="#ffb07b" stroke-width=".4363"/>
  <g transform="translate(1.7727 -1.0583)">
   <path d="m13.229 10.618a0.60854 1.1377 0 0 1-0.60854 1.1377 0.60854 1.1377 0 0 1-0.60854-1.1377 0.60854 1.1377 0 0 1 0.60854-1.1377 0.60854 1.1377 0 0 1 0.60854 1.1377z" fill="#fff" stroke-width=".78061"/>
   <path d="m12.991 10.769a0.37042 0.44979 0 0 1-0.37042 0.44979 0.37042 0.44979 0 0 1-0.37042-0.44979 0.37042 0.44979 0 0 1 0.37042-0.44979 0.37042 0.44979 0 0 1 0.37042 0.44979z" stroke-width=".76266"/>
  </g>
  <ellipse cx="9.9323" cy="11.229" rx=".53831" ry=".53023" fill="#ffb07b" stroke-width=".79375"/>
  <ellipse cx="16.278" cy="11.324" rx=".53831" ry=".53023" fill="#ffb07b" stroke-width=".79375"/>
  <path d="m11.279 8.454c0.14014-0.29569 0.5787-0.63766 1.0432-0.40858" fill="none" stroke="#d5772a" stroke-width=".22679"/>
  <path d="m15.18 8.454c-0.14014-0.29569-0.5787-0.63766-1.0432-0.40858" fill="none" stroke="#d5772a" stroke-width=".22679"/>
 </g>
 <g fill="#d5772a">
  <path d="m12.509 3.7326c-2.0849 0-3.8171 1.8266-3.7631 4.3823v1.3051c1.0661-4.4781 7.7569-4.5254 8.9669 0v-1.3051c0.1947-2.3683-1.6782-4.3823-3.7631-4.3823z" stroke-linecap="round" stroke-width=".79726"/>
  <path d="m10.407 6.8863c-1.1968 0.58228-1.0039 1.9848-1.5881 2.9533 0.1167-0.61245 0.02744-1.0091-0.12046-1.9988z"/>
  <path d="m16.097 6.9662c1.0095 0.37907 1.0998 2.4906 1.5738 2.8795-0.25861-1.18 0.04197-1.7308 0.13479-1.9249z"/>
 </g>
 <g stroke-linecap="round">
  <path d="m10.98 12.841a2.249 1.911 0 0 0 2.249 1.911 2.249 1.911 0 0 0 2.249-1.911z" fill="#333" stroke-width=".43325"/>
  <path d="m13.229 13.796a2.249 1.911 0 0 0-1.4871 0.47774 2.249 1.911 0 0 0 1.4871 0.47774 2.249 1.911 0 0 0 1.4876-0.47774 2.249 1.911 0 0 0-1.4876-0.47774z" fill="#f55" stroke-width=".43325"/>
  <path d="m11.23 12.841h3.9981v0.11944a0.37483 0.35831 0 0 1-0.37483 0.35831h-3.2485a0.37483 0.35831 0 0 1-0.37483-0.35831z" fill="#fff" stroke-width=".56789"/>
 </g>
</svg>
