<?xml version="1.0" encoding="UTF-8"?>
<!-- Created with Inkscape (http://www.inkscape.org/) -->
<svg width="100" height="100" version="1.1" viewBox="0 0 26.458 26.458" xmlns="http://www.w3.org/2000/svg">
 <g stroke-linecap="round">
  <path d="m11.87 17.217c-3.8171 0-6.8899 3.3472-6.8899 7.5053v1.7358h16.417v-1.7358c0-4.1581-3.0728-7.5053-6.8899-7.5053h-2.637z" fill="#338000" stroke-width="1.4118" style="mix-blend-mode:normal"/>
  <path d="m11.87 17.217c-0.62922 0-1.2375 0.09299-1.8159 0.26354v8.9777h6.3499v-8.9529c-0.60248-0.18638-1.2382-0.28834-1.897-0.28834h-2.637z" fill="#502d16" stroke-width=".28823"/>
  <path d="m12.925 14.569h0.60858c0.88093 0 1.5901 0.68485 1.5901 1.5355v1.1715c0 0.85069-0.7092 1.5355-1.5901 1.5355h-0.60858c-0.88093 0-1.5901-0.68485-1.5901-1.5355v-1.1715c0-0.85069 0.7092-1.5355 1.5901-1.5355z" fill="#ef9d65" stroke-width=".30677"/>
  <ellipse cx="18.448" cy="7.5528" rx="1.2496" ry="1.2449" fill="#502d16" stroke-width=".79375"/>
  <ellipse cx="8.4779" cy="7.2468" rx="1.423" ry="1.4991" fill="#502d16" stroke-width=".88123"/>
 </g>
 <g stroke-linecap="round">
  <rect x="6.8792" y="8.0963" width="3.175" height="2.8575" ry="1.1269" fill="#ef9d65" stroke-width=".69263"/>
  <rect x="16.404" y="8.0963" width="3.175" height="2.8575" ry="1.1269" fill="#ef9d65" stroke-width=".69263"/>
  <g fill="#be6b34">
   <rect x="7.4083" y="8.4667" width="2.1167" height="2.1167" ry=".83472" stroke-width=".48673"/>
   <rect x="16.933" y="8.4667" width="2.1167" height="2.1167" ry=".83472" stroke-width=".48673"/>
   <path d="m11.883 12.931h2.693c0.30356 0 0.54794 0.24438 0.54794 0.54794v3.1467c0 0.30356-0.25047 0.48746-0.54794 0.54794-0.83427 0.16961-1.7777 0.16948-2.693 0-0.29848-0.05527-0.54794-0.24438-0.54794-0.54794v-3.1467c0-0.30356 0.24438-0.54794 0.54794-0.54794z" stroke-width=".29852"/>
  </g>
  <path d="m12.422 3.7326h1.615c2.3377 0 4.2196 2.0501 4.2196 4.5966v3.5067c0 2.5465-1.8819 4.5966-4.2196 4.5966h-1.615c-2.3377 0-4.2196-2.0501-4.2196-4.5966v-3.5067c0-2.5465 1.8819-4.5966 4.2196-4.5966z" fill="#ef9d65" stroke-width=".8646"/>
 </g>
 <g stroke-linecap="round">
  <g transform="translate(-.55562 -1.0583)">
   <path d="m13.229 10.618a0.60854 1.1377 0 0 1-0.60854 1.1377 0.60854 1.1377 0 0 1-0.60854-1.1377 0.60854 1.1377 0 0 1 0.60854-1.1377 0.60854 1.1377 0 0 1 0.60854 1.1377z" fill="#fff" stroke-width=".78061"/>
   <path d="m12.991 10.769a0.37042 0.44979 0 0 1-0.37042 0.44979 0.37042 0.44979 0 0 1-0.37042-0.44979 0.37042 0.44979 0 0 1 0.37042-0.44979 0.37042 0.44979 0 0 1 0.37042 0.44979z" stroke-width=".76266"/>
  </g>
  <path d="m13.229 10.591c0.1759 0 0.3175 0.09462 0.3175 0.21215v1.0574c0 0.11753-0.1416 0.21215-0.3175 0.21215s-0.3175-0.09462-0.3175-0.21215v-1.0574c0-0.11753 0.1416-0.21215 0.3175-0.21215z" fill="#be6b34" stroke-width=".4363"/>
  <path d="m10.848 12.585a2.3812 2.1167 0 0 0 2.3813 2.1167 2.3812 2.1167 0 0 0 2.3812-2.1167z" fill="#333" stroke-width=".46919"/>
  <g transform="translate(1.7727,-1.0583)">
   <path d="m13.229 10.618a0.60854 1.1377 0 0 1-0.60854 1.1377 0.60854 1.1377 0 0 1-0.60854-1.1377 0.60854 1.1377 0 0 1 0.60854-1.1377 0.60854 1.1377 0 0 1 0.60854 1.1377z" fill="#fff" stroke-width=".78061"/>
   <path d="m12.991 10.769a0.37042 0.44979 0 0 1-0.37042 0.44979 0.37042 0.44979 0 0 1-0.37042-0.44979 0.37042 0.44979 0 0 1 0.37042-0.44979 0.37042 0.44979 0 0 1 0.37042 0.44979z" stroke-width=".76266"/>
  </g>
  <path d="m13.229 13.644a2.3812 2.1167 0 0 0-1.5746 0.52917 2.3812 2.1167 0 0 0 1.5746 0.52917 2.3812 2.1167 0 0 0 1.5751-0.52917 2.3812 2.1167 0 0 0-1.5751-0.52917z" fill="#f55" stroke-width=".46919"/>
  <path d="m11.112 12.585h4.2333v0.13229a0.39688 0.39688 0 0 1-0.39688 0.39688h-3.4396a0.39688 0.39688 0 0 1-0.39688-0.39688z" fill="#fff" stroke-width=".615"/>
  <g fill="#502d16">
   <ellipse cx="16.2" cy="5.2309" rx="1.9938" ry="2.2804" stroke-width=".85615"/>
   <ellipse cx="11.185" cy="4.2017" rx="1.2496" ry="1.2449" stroke-width=".79375"/>
   <ellipse cx="13.704" cy="5.0964" rx=".83287" ry=".76027" stroke-width=".79375"/>
   <ellipse cx="17.971" cy="6.4438" rx="1.5817" ry="1.5794" stroke-width="1.0058"/>
   <ellipse cx="13.454" cy="4.1077" rx="1.2496" ry="1.2449" stroke-width=".79375"/>
   <ellipse cx="12.257" cy="5.0129" rx="1.2496" ry="1.2449" stroke-width=".79375"/>
   <ellipse cx="9.3685" cy="5.1959" rx="1.5291" ry="1.5306" stroke-width=".97357"/>
   <ellipse cx="9.0093" cy="7.8428" rx="1.2496" ry="1.2449" stroke-width=".79375"/>
   <ellipse cx="9.7972" cy="6.3555" rx="1.7933" ry="1.7544" stroke-width=".71218"/>
   <ellipse cx="17.961" cy="8.2002" rx=".83287" ry=".76027" stroke-width=".79375"/>
   <ellipse cx="13.883" cy="5.8373" rx="1.2496" ry="1.516" stroke-width=".87592"/>
   <ellipse cx="11.645" cy="5.9454" rx="1.2496" ry="1.2449" stroke-width=".79375"/>
  </g>
  <ellipse cx="9.8794" cy="11.177" rx=".53831" ry=".53023" fill="#be6b34" stroke-width=".79375"/>
  <ellipse cx="16.331" cy="11.271" rx=".53831" ry=".53023" fill="#be6b34" stroke-width=".79375"/>
  <path d="m11.279 8.454c0.14014-0.29569 0.5787-0.63766 1.0432-0.40858" fill="none" stroke="#502d16" stroke-width=".22679"/>
  <path d="m15.18 8.454c-0.14014-0.29569-0.5787-0.63766-1.0432-0.40858" fill="none" stroke="#502d16" stroke-width=".22679"/>
 </g>
</svg>
