<?xml version="1.0" encoding="UTF-8"?>
<!-- Created with Inkscape (http://www.inkscape.org/) -->
<svg width="100" height="100" version="1.1" viewBox="0 0 26.458 26.458" xmlns="http://www.w3.org/2000/svg">
 <g stroke-linecap="round">
  <path d="m11.911 17.217c-3.8171 0-6.89 3.3473-6.89 7.5055v1.7358h16.417v-1.7358c0-4.1582-3.0729-7.5055-6.89-7.5055z" fill="#eb6a14" stroke-width="1.4118" style="mix-blend-mode:normal"/>
  <path d="m11.911 17.217c-0.62923 0-1.2376 0.09299-1.8159 0.26355v8.9777h6.35v-8.9529c-0.60249-0.18638-1.2382-0.28835-1.897-0.28835z" fill="#333" stroke-width=".28824"/>
  <path d="m12.965 14.569h0.60858c0.88093 0 1.5901 0.68485 1.5901 1.5355v1.1715c0 0.85069-0.7092 1.5355-1.5901 1.5355h-0.60858c-0.88093 0-1.5901-0.68485-1.5901-1.5355v-1.1715c0-0.85069 0.7092-1.5355 1.5901-1.5355z" fill="#ffb58e" stroke-width=".30677"/>
  <rect x="6.9197" y="8.0963" width="3.175" height="2.8575" ry="1.1269" fill="#ffb380" stroke-width=".69263"/>
  <rect x="16.445" y="8.0963" width="3.175" height="2.8575" ry="1.1269" fill="#ffb380" stroke-width=".69263"/>
  <rect x="7.4489" y="8.4667" width="2.1167" height="2.1167" ry=".83472" fill="#ff945b" stroke-width=".48673"/>
  <rect x="16.974" y="8.4667" width="2.1167" height="2.1167" ry=".83472" fill="#ff945b" stroke-width=".48673"/>
  <path d="m11.923 12.931h2.693c0.30356 0 0.54794 0.24438 0.54794 0.54794v3.1467c0 0.30356-0.25047 0.48746-0.54794 0.54794-0.83427 0.16961-1.7777 0.16948-2.693 0-0.29848-0.05527-0.54794-0.24438-0.54794-0.54794v-3.1467c0-0.30356 0.24438-0.54794 0.54794-0.54794z" fill="#d38d5f" stroke-width=".29852"/>
  <path d="m12.462 3.7326h1.615c2.3377 0 4.2196 2.0501 4.2196 4.5966v3.5067c0 2.5465-1.8819 4.5966-4.2196 4.5966h-1.615c-2.3377 0-4.2196-2.0501-4.2196-4.5966v-3.5067c0-2.5465 1.8819-4.5966 4.2196-4.5966z" fill="#ffb58e" stroke-width=".8646"/>
 </g>
 <g transform="translate(-.51508 -1.0583)" stroke-linecap="round">
  <path d="m13.229 10.618a0.60854 1.1377 0 0 1-0.60854 1.1377 0.60854 1.1377 0 0 1-0.60854-1.1377 0.60854 1.1377 0 0 1 0.60854-1.1377 0.60854 1.1377 0 0 1 0.60854 1.1377z" fill="#fff" stroke-width=".78061"/>
  <path d="m12.991 10.769a0.37042 0.44979 0 0 1-0.37042 0.44979 0.37042 0.44979 0 0 1-0.37042-0.44979 0.37042 0.44979 0 0 1 0.37042-0.44979 0.37042 0.44979 0 0 1 0.37042 0.44979z" stroke-width=".76266"/>
 </g>
 <path d="m13.27 10.591c0.1759 0 0.3175 0.09462 0.3175 0.21215v1.0574c0 0.11753-0.1416 0.21215-0.3175 0.21215s-0.3175-0.09462-0.3175-0.21215v-1.0574c0-0.11753 0.1416-0.21215 0.3175-0.21215z" fill="#ff945b" stroke-linecap="round" stroke-width=".4363"/>
 <path d="m10.888 12.585a2.3812 2.1167 0 0 0 2.3813 2.1167 2.3812 2.1167 0 0 0 2.3812-2.1167z" fill="#333" stroke-linecap="round" stroke-width=".46919"/>
 <g transform="translate(1.8133 -1.0583)" stroke-linecap="round">
  <path d="m13.229 10.618a0.60854 1.1377 0 0 1-0.60854 1.1377 0.60854 1.1377 0 0 1-0.60854-1.1377 0.60854 1.1377 0 0 1 0.60854-1.1377 0.60854 1.1377 0 0 1 0.60854 1.1377z" fill="#fff" stroke-width=".78061"/>
  <path d="m12.991 10.769a0.37042 0.44979 0 0 1-0.37042 0.44979 0.37042 0.44979 0 0 1-0.37042-0.44979 0.37042 0.44979 0 0 1 0.37042-0.44979 0.37042 0.44979 0 0 1 0.37042 0.44979z" stroke-width=".76266"/>
 </g>
 <g stroke-linecap="round">
  <path d="m13.27 13.644a2.3812 2.1167 0 0 0-1.5746 0.52917 2.3812 2.1167 0 0 0 1.5746 0.52917 2.3812 2.1167 0 0 0 1.5751-0.52917 2.3812 2.1167 0 0 0-1.5751-0.52917z" fill="#f55" stroke-width=".46919"/>
  <path d="m11.153 12.585h4.2333v0.13229a0.39688 0.39688 0 0 1-0.39688 0.39688h-3.4396a0.39688 0.39688 0 0 1-0.39688-0.39688z" fill="#fff" stroke-width=".615"/>
  <ellipse cx="9.92" cy="11.177" rx=".53831" ry=".53023" fill="#ff945b" stroke-width=".79375"/>
  <ellipse cx="16.371" cy="11.271" rx=".53831" ry=".53023" fill="#ff945b" stroke-width=".79375"/>
  <path d="m11.319 8.454c0.14014-0.29569 0.5787-0.63766 1.0432-0.40858" fill="none" stroke="#fceb4f" stroke-width=".22679"/>
  <path d="m15.22 8.454c-0.14014-0.29569-0.5787-0.63766-1.0432-0.40858" fill="none" stroke="#fceb4f" stroke-width=".22679"/>
 </g>
 <path transform="scale(.26458)" d="m64.859 8.7793c-3.0105 2.6922-6.1867 4.1438-10.145 3.8574h-5.0293v0.0039h-2.7715c-9.3066 0-16.807 8.104-16.916 18.213-0.22974 2.2859 0.26596 4.4755 2.1836 6.5137 0.06853-5.5806 3.0043-6.2238 4.6465-9.5742 0.47349 0.13373 0.97558 0.20898 1.4961 0.20898h22.781c0.72876-0.05251 1.5054-0.26751 2.293-0.63086 1.1317 3.9559 3.8801 6.2991 9.125 7.3691-2.7691-4.2974-1.8512-10.708-4.2363-11.738 1.9378-2.8437 3.252-6.7876 2.9648-11.549-1.8748 2.9055-4.3425 3.6609-7.0918 3.75 0.50679-1.9573 0.77395-4.113 0.69922-6.4238z" fill="#fceb4f"/>
</svg>
